<?xml version="1.0" standalone="no"?>
<!DOCTYPE svg PUBLIC "-//W3C//DTD SVG 20010904//EN"
 "http://www.w3.org/TR/2001/REC-SVG-20010904/DTD/svg10.dtd">
<svg version="1.0" xmlns="http://www.w3.org/2000/svg"
 width="300.000000pt" height="300.000000pt" viewBox="0 0 300.000000 300.000000"
 preserveAspectRatio="xMidYMid meet">
<metadata>
Created by potrace 1.10, written by Peter Selinger 2001-2011
</metadata>
<g transform="translate(0.000000,300.000000) scale(0.100000,-0.100000)"
fill="#ff00ff" stroke="none">
<path d="M1405 2564 c-249 -24 -495 -143 -671 -325 -63 -66 -174 -218 -174
-239 0 -5 24 -16 53 -26 28 -9 57 -20 62 -24 6 -4 39 -17 75 -30 36 -13 97
-35 135 -51 39 -15 167 -65 285 -110 118 -45 278 -106 355 -136 77 -30 177
-68 223 -85 45 -17 82 -34 82 -38 0 -4 -37 -21 -82 -38 -46 -17 -146 -55 -223
-85 -77 -30 -237 -91 -355 -136 -118 -46 -253 -97 -300 -115 -47 -18 -107 -41
-135 -51 -27 -10 -54 -22 -60 -25 -5 -4 -34 -15 -63 -24 -28 -10 -52 -21 -52
-26 0 -21 111 -173 174 -239 148 -153 338 -259 551 -306 110 -25 322 -25 425
0 223 53 381 137 532 283 210 203 321 467 322 762 0 178 -32 316 -110 473
-142 285 -403 491 -717 566 -81 19 -255 32 -332 25z"/>
</g>
</svg>
